<mxfile host="www.draw.io" modified="2020-02-11T11:47:30.370Z" agent="Mozilla/5.0 (Windows NT 10.0; Win64; x64) AppleWebKit/537.36 (KHTML, like Gecko) Chrome/80.0.3987.87 Safari/537.36" etag="F0CITm4gEFt2FRbJ0ZwI" version="12.6.7" type="github">
  <diagram id="Ghf716WAuRJyy_RVdY4j" name="Page-1">
    <mxGraphModel dx="1022" dy="1889" grid="1" gridSize="10" guides="1" tooltips="1" connect="1" arrows="1" fold="1" page="1" pageScale="1" pageWidth="1600" pageHeight="1200" math="0" shadow="0">
      <root>
        <mxCell id="0"/>
        <mxCell id="1" parent="0"/>
        <mxCell id="oT1uAnvIcxXkzFI-VEn5-92" style="edgeStyle=orthogonalEdgeStyle;rounded=0;orthogonalLoop=1;jettySize=auto;html=1;exitX=0.5;exitY=1;exitDx=0;exitDy=0;exitPerimeter=0;entryX=0.5;entryY=0;entryDx=0;entryDy=0;" parent="1" source="dorm54uOr78fkXt2-5hW-4" target="oT1uAnvIcxXkzFI-VEn5-90" edge="1">
          <mxGeometry relative="1" as="geometry"/>
        </mxCell>
        <mxCell id="dorm54uOr78fkXt2-5hW-4" value="CR created in RCQ" style="strokeWidth=2;html=1;shape=mxgraph.flowchart.start_2;whiteSpace=wrap;" parent="1" vertex="1">
          <mxGeometry x="505" y="-50" width="70" height="70" as="geometry"/>
        </mxCell>
        <mxCell id="oT1uAnvIcxXkzFI-VEn5-37" style="edgeStyle=orthogonalEdgeStyle;rounded=0;orthogonalLoop=1;jettySize=auto;html=1;exitX=0;exitY=0.5;exitDx=0;exitDy=0;entryX=0.982;entryY=0.45;entryDx=0;entryDy=0;entryPerimeter=0;" parent="1" target="dorm54uOr78fkXt2-5hW-39" edge="1">
          <mxGeometry relative="1" as="geometry">
            <mxPoint x="490" y="380" as="sourcePoint"/>
          </mxGeometry>
        </mxCell>
        <mxCell id="dorm54uOr78fkXt2-5hW-45" value="" style="edgeStyle=orthogonalEdgeStyle;rounded=0;orthogonalLoop=1;jettySize=auto;html=1;fontColor=#FFFF99;" parent="1" edge="1">
          <mxGeometry relative="1" as="geometry">
            <mxPoint x="540" y="598.02" as="sourcePoint"/>
            <mxPoint x="540" y="638.02" as="targetPoint"/>
          </mxGeometry>
        </mxCell>
        <mxCell id="dorm54uOr78fkXt2-5hW-39" value="RCQ notification for CR assignment is not working for ODC members, thus RCQ assignment is checked on daily basis to detect assignment." style="shape=note;whiteSpace=wrap;html=1;backgroundOutline=1;darkOpacity=0.05;align=left;labelBackgroundColor=#FFFF99;fillColor=#FFFF99;strokeColor=#d6b656;labelBorderColor=none;verticalAlign=top;" parent="1" vertex="1">
          <mxGeometry x="90" y="335.02" width="280" height="100" as="geometry"/>
        </mxCell>
        <mxCell id="dorm54uOr78fkXt2-5hW-43" style="edgeStyle=orthogonalEdgeStyle;rounded=0;orthogonalLoop=1;jettySize=auto;html=1;exitX=0.5;exitY=1;exitDx=0;exitDy=0;exitPerimeter=0;fontColor=#FFFF99;" parent="1" source="dorm54uOr78fkXt2-5hW-39" target="dorm54uOr78fkXt2-5hW-39" edge="1">
          <mxGeometry relative="1" as="geometry"/>
        </mxCell>
        <mxCell id="dorm54uOr78fkXt2-5hW-64" value="" style="shape=mxgraph.bpmn.loop;html=1;outlineConnect=0;labelBackgroundColor=#FFFF99;fillColor=#FFFF99;fontColor=#FFFF99;align=left;" parent="1" vertex="1">
          <mxGeometry x="200" y="393.02" width="44" height="42" as="geometry"/>
        </mxCell>
        <mxCell id="oT1uAnvIcxXkzFI-VEn5-13" value="" style="edgeStyle=orthogonalEdgeStyle;rounded=0;orthogonalLoop=1;jettySize=auto;html=1;" parent="1" edge="1">
          <mxGeometry relative="1" as="geometry">
            <mxPoint x="540" y="260" as="sourcePoint"/>
            <mxPoint x="540" y="280" as="targetPoint"/>
          </mxGeometry>
        </mxCell>
        <mxCell id="oT1uAnvIcxXkzFI-VEn5-33" style="edgeStyle=orthogonalEdgeStyle;rounded=0;orthogonalLoop=1;jettySize=auto;html=1;exitX=1;exitY=0.5;exitDx=0;exitDy=0;entryX=0.5;entryY=0;entryDx=0;entryDy=0;entryPerimeter=0;" parent="1" target="oT1uAnvIcxXkzFI-VEn5-30" edge="1">
          <mxGeometry relative="1" as="geometry">
            <mxPoint x="610" y="210" as="sourcePoint"/>
          </mxGeometry>
        </mxCell>
        <mxCell id="oT1uAnvIcxXkzFI-VEn5-21" value="Yes" style="text;html=1;align=center;verticalAlign=middle;resizable=0;points=[];autosize=1;" parent="1" vertex="1">
          <mxGeometry x="535" y="250" width="40" height="20" as="geometry"/>
        </mxCell>
        <mxCell id="oT1uAnvIcxXkzFI-VEn5-39" style="edgeStyle=orthogonalEdgeStyle;rounded=0;orthogonalLoop=1;jettySize=auto;html=1;exitX=0.5;exitY=1;exitDx=0;exitDy=0;entryX=0.5;entryY=0;entryDx=0;entryDy=0;" parent="1" edge="1">
          <mxGeometry relative="1" as="geometry">
            <mxPoint x="540" y="528.02" as="sourcePoint"/>
            <mxPoint x="540" y="558.02" as="targetPoint"/>
          </mxGeometry>
        </mxCell>
        <mxCell id="oT1uAnvIcxXkzFI-VEn5-23" value="Yes" style="text;html=1;align=center;verticalAlign=middle;resizable=0;points=[];autosize=1;" parent="1" vertex="1">
          <mxGeometry x="540" y="538.02" width="40" height="20" as="geometry"/>
        </mxCell>
        <mxCell id="oT1uAnvIcxXkzFI-VEn5-30" value="Close&lt;br&gt;&amp;nbsp;the CR" style="strokeWidth=2;html=1;shape=mxgraph.flowchart.extract_or_measurement;whiteSpace=wrap;" parent="1" vertex="1">
          <mxGeometry x="705" y="230" width="105" height="60" as="geometry"/>
        </mxCell>
        <mxCell id="oT1uAnvIcxXkzFI-VEn5-34" value="No" style="text;html=1;align=center;verticalAlign=middle;resizable=0;points=[];autosize=1;" parent="1" vertex="1">
          <mxGeometry x="620" y="185" width="30" height="20" as="geometry"/>
        </mxCell>
        <mxCell id="oT1uAnvIcxXkzFI-VEn5-89" style="edgeStyle=orthogonalEdgeStyle;rounded=0;orthogonalLoop=1;jettySize=auto;html=1;exitX=0.5;exitY=1;exitDx=0;exitDy=0;entryX=0.5;entryY=0;entryDx=0;entryDy=0;entryPerimeter=0;" parent="1" source="oT1uAnvIcxXkzFI-VEn5-45" target="oT1uAnvIcxXkzFI-VEn5-48" edge="1">
          <mxGeometry relative="1" as="geometry"/>
        </mxCell>
        <mxCell id="oT1uAnvIcxXkzFI-VEn5-45" value="&lt;span style=&quot;white-space: normal ; text-align: left&quot;&gt;RCQ Assignment is &lt;br&gt;detected by ODC&lt;/span&gt;" style="shape=parallelogram;html=1;strokeWidth=2;perimeter=parallelogramPerimeter;whiteSpace=wrap;rounded=1;arcSize=12;size=0.23;" parent="1" vertex="1">
          <mxGeometry x="466" y="362" width="150" height="60" as="geometry"/>
        </mxCell>
        <mxCell id="oT1uAnvIcxXkzFI-VEn5-88" style="edgeStyle=orthogonalEdgeStyle;rounded=0;orthogonalLoop=1;jettySize=auto;html=1;exitX=0.5;exitY=1;exitDx=0;exitDy=0;entryX=0.5;entryY=0;entryDx=0;entryDy=0;" parent="1" source="oT1uAnvIcxXkzFI-VEn5-46" target="oT1uAnvIcxXkzFI-VEn5-45" edge="1">
          <mxGeometry relative="1" as="geometry"/>
        </mxCell>
        <mxCell id="oT1uAnvIcxXkzFI-VEn5-46" value="&lt;span style=&quot;white-space: normal&quot;&gt;Assign to ODC&lt;/span&gt;" style="shape=parallelogram;html=1;strokeWidth=2;perimeter=parallelogramPerimeter;whiteSpace=wrap;rounded=1;arcSize=12;size=0.23;" parent="1" vertex="1">
          <mxGeometry x="479" y="278.02" width="122" height="60" as="geometry"/>
        </mxCell>
        <mxCell id="oT1uAnvIcxXkzFI-VEn5-47" value="&lt;span style=&quot;white-space: normal ; text-align: left&quot;&gt;CR is initial analyzed&lt;br&gt;&amp;nbsp;by ODC Lead&amp;nbsp;&lt;/span&gt;" style="shape=parallelogram;html=1;strokeWidth=2;perimeter=parallelogramPerimeter;whiteSpace=wrap;rounded=1;arcSize=12;size=0.23;" parent="1" vertex="1">
          <mxGeometry x="440" y="560" width="200" height="50" as="geometry"/>
        </mxCell>
        <mxCell id="oT1uAnvIcxXkzFI-VEn5-94" style="edgeStyle=orthogonalEdgeStyle;rounded=0;orthogonalLoop=1;jettySize=auto;html=1;exitX=0;exitY=0.5;exitDx=0;exitDy=0;exitPerimeter=0;entryX=0;entryY=0.5;entryDx=0;entryDy=0;" parent="1" source="oT1uAnvIcxXkzFI-VEn5-48" target="oT1uAnvIcxXkzFI-VEn5-90" edge="1">
          <mxGeometry relative="1" as="geometry">
            <Array as="points">
              <mxPoint x="420" y="483"/>
              <mxPoint x="420" y="80"/>
            </Array>
          </mxGeometry>
        </mxCell>
        <mxCell id="oT1uAnvIcxXkzFI-VEn5-48" value="&lt;span style=&quot;white-space: normal&quot;&gt;Is CR in English&amp;nbsp; language?&lt;/span&gt;" style="strokeWidth=2;html=1;shape=mxgraph.flowchart.decision;whiteSpace=wrap;" parent="1" vertex="1">
          <mxGeometry x="490" y="438.02" width="100" height="90" as="geometry"/>
        </mxCell>
        <mxCell id="oT1uAnvIcxXkzFI-VEn5-80" style="edgeStyle=orthogonalEdgeStyle;rounded=0;orthogonalLoop=1;jettySize=auto;html=1;exitX=0.5;exitY=1;exitDx=0;exitDy=0;exitPerimeter=0;entryX=0.5;entryY=0;entryDx=0;entryDy=0;" parent="1" source="oT1uAnvIcxXkzFI-VEn5-51" edge="1">
          <mxGeometry relative="1" as="geometry">
            <mxPoint x="540" y="778.02" as="targetPoint"/>
          </mxGeometry>
        </mxCell>
        <mxCell id="oT1uAnvIcxXkzFI-VEn5-95" style="edgeStyle=orthogonalEdgeStyle;rounded=0;orthogonalLoop=1;jettySize=auto;html=1;exitX=0;exitY=0.5;exitDx=0;exitDy=0;exitPerimeter=0;" parent="1" source="oT1uAnvIcxXkzFI-VEn5-51" target="oT1uAnvIcxXkzFI-VEn5-90" edge="1">
          <mxGeometry relative="1" as="geometry">
            <Array as="points">
              <mxPoint x="420" y="688"/>
              <mxPoint x="420" y="80"/>
            </Array>
          </mxGeometry>
        </mxCell>
        <mxCell id="oT1uAnvIcxXkzFI-VEn5-51" value="Is OK for implementation&amp;nbsp;" style="strokeWidth=2;html=1;shape=mxgraph.flowchart.decision;whiteSpace=wrap;" parent="1" vertex="1">
          <mxGeometry x="480" y="638.02" width="120" height="100" as="geometry"/>
        </mxCell>
        <mxCell id="oT1uAnvIcxXkzFI-VEn5-60" style="edgeStyle=orthogonalEdgeStyle;rounded=0;orthogonalLoop=1;jettySize=auto;html=1;exitX=0.5;exitY=1;exitDx=0;exitDy=0;entryX=0.5;entryY=0;entryDx=0;entryDy=0;" parent="1" edge="1">
          <mxGeometry relative="1" as="geometry">
            <mxPoint x="541" y="918.02" as="sourcePoint"/>
            <mxPoint x="540" y="938.02" as="targetPoint"/>
          </mxGeometry>
        </mxCell>
        <mxCell id="oT1uAnvIcxXkzFI-VEn5-52" value="&lt;span style=&quot;text-align: left&quot;&gt;Assign the CR for design &lt;br&gt;and implementation&lt;br&gt;&amp;nbsp;to developer&amp;nbsp;&lt;/span&gt;" style="shape=parallelogram;html=1;strokeWidth=2;perimeter=parallelogramPerimeter;whiteSpace=wrap;rounded=1;arcSize=12;size=0.23;" parent="1" vertex="1">
          <mxGeometry x="441" y="860" width="200" height="60" as="geometry"/>
        </mxCell>
        <mxCell id="oT1uAnvIcxXkzFI-VEn5-62" style="edgeStyle=orthogonalEdgeStyle;rounded=0;orthogonalLoop=1;jettySize=auto;html=1;exitX=0.5;exitY=1;exitDx=0;exitDy=0;entryX=0.5;entryY=0;entryDx=0;entryDy=0;entryPerimeter=0;" parent="1" target="oT1uAnvIcxXkzFI-VEn5-61" edge="1">
          <mxGeometry relative="1" as="geometry">
            <mxPoint x="540" y="998.02" as="sourcePoint"/>
          </mxGeometry>
        </mxCell>
        <mxCell id="oT1uAnvIcxXkzFI-VEn5-59" value="&lt;div style=&quot;text-align: left&quot;&gt;&lt;span&gt;Detail analysis of CR&lt;/span&gt;&lt;/div&gt;" style="shape=parallelogram;html=1;strokeWidth=2;perimeter=parallelogramPerimeter;whiteSpace=wrap;rounded=1;arcSize=12;size=0.23;" parent="1" vertex="1">
          <mxGeometry x="440" y="940" width="200" height="60" as="geometry"/>
        </mxCell>
        <mxCell id="oT1uAnvIcxXkzFI-VEn5-84" style="edgeStyle=orthogonalEdgeStyle;rounded=0;orthogonalLoop=1;jettySize=auto;html=1;exitX=0.5;exitY=1;exitDx=0;exitDy=0;exitPerimeter=0;entryX=0.547;entryY=0.033;entryDx=0;entryDy=0;entryPerimeter=0;" parent="1" source="oT1uAnvIcxXkzFI-VEn5-61" edge="1">
          <mxGeometry relative="1" as="geometry">
            <mxPoint x="542.05" y="1150" as="targetPoint"/>
          </mxGeometry>
        </mxCell>
        <mxCell id="oT1uAnvIcxXkzFI-VEn5-96" style="edgeStyle=orthogonalEdgeStyle;rounded=0;orthogonalLoop=1;jettySize=auto;html=1;exitX=0;exitY=0.5;exitDx=0;exitDy=0;exitPerimeter=0;entryX=0;entryY=0.5;entryDx=0;entryDy=0;" parent="1" source="oT1uAnvIcxXkzFI-VEn5-61" target="oT1uAnvIcxXkzFI-VEn5-90" edge="1">
          <mxGeometry relative="1" as="geometry">
            <Array as="points">
              <mxPoint x="420" y="1061"/>
              <mxPoint x="420" y="80"/>
            </Array>
          </mxGeometry>
        </mxCell>
        <mxCell id="oT1uAnvIcxXkzFI-VEn5-61" value="Is there any query?" style="strokeWidth=2;html=1;shape=mxgraph.flowchart.decision;whiteSpace=wrap;" parent="1" vertex="1">
          <mxGeometry x="481" y="1011.02" width="120" height="100" as="geometry"/>
        </mxCell>
        <mxCell id="oT1uAnvIcxXkzFI-VEn5-71" style="edgeStyle=orthogonalEdgeStyle;rounded=0;orthogonalLoop=1;jettySize=auto;html=1;exitX=0.5;exitY=1;exitDx=0;exitDy=0;entryX=0.5;entryY=0;entryDx=0;entryDy=0;" parent="1" edge="1">
          <mxGeometry relative="1" as="geometry">
            <mxPoint x="540" y="838.02" as="sourcePoint"/>
            <mxPoint x="541" y="858.02" as="targetPoint"/>
          </mxGeometry>
        </mxCell>
        <mxCell id="oT1uAnvIcxXkzFI-VEn5-69" value="&lt;span style=&quot;text-align: left&quot;&gt;CR added to Polarion&amp;nbsp;&lt;br&gt;as OIT&amp;nbsp;task under&lt;br&gt;&amp;nbsp;&lt;/span&gt;&lt;font color=&quot;#FF3333&quot; style=&quot;text-align: left&quot;&gt;MI&amp;nbsp;&lt;/font&gt;&lt;span style=&quot;text-align: left&quot;&gt;ETD-1412&lt;/span&gt;" style="shape=parallelogram;html=1;strokeWidth=2;perimeter=parallelogramPerimeter;whiteSpace=wrap;rounded=1;arcSize=12;size=0.23;" parent="1" vertex="1">
          <mxGeometry x="440" y="780" width="200" height="60" as="geometry"/>
        </mxCell>
        <mxCell id="oT1uAnvIcxXkzFI-VEn5-81" value="Yes" style="text;html=1;align=center;verticalAlign=middle;resizable=0;points=[];autosize=1;" parent="1" vertex="1">
          <mxGeometry x="540" y="747.02" width="40" height="20" as="geometry"/>
        </mxCell>
        <mxCell id="oT1uAnvIcxXkzFI-VEn5-104" style="edgeStyle=orthogonalEdgeStyle;rounded=0;orthogonalLoop=1;jettySize=auto;html=1;exitX=0.5;exitY=1;exitDx=0;exitDy=0;" parent="1" source="oT1uAnvIcxXkzFI-VEn5-85" target="oT1uAnvIcxXkzFI-VEn5-103" edge="1">
          <mxGeometry relative="1" as="geometry"/>
        </mxCell>
        <mxCell id="oT1uAnvIcxXkzFI-VEn5-85" value="&lt;div style=&quot;text-align: left&quot;&gt;Design and Implement&lt;/div&gt;" style="shape=parallelogram;html=1;strokeWidth=2;perimeter=parallelogramPerimeter;whiteSpace=wrap;rounded=1;arcSize=12;size=0.23;" parent="1" vertex="1">
          <mxGeometry x="440" y="1150" width="200" height="60" as="geometry"/>
        </mxCell>
        <mxCell id="oT1uAnvIcxXkzFI-VEn5-86" value="No" style="text;html=1;align=center;verticalAlign=middle;resizable=0;points=[];autosize=1;" parent="1" vertex="1">
          <mxGeometry x="545" y="1119.02" width="30" height="20" as="geometry"/>
        </mxCell>
        <mxCell id="oT1uAnvIcxXkzFI-VEn5-87" value="Yes" style="text;html=1;align=center;verticalAlign=middle;resizable=0;points=[];autosize=1;" parent="1" vertex="1">
          <mxGeometry x="430" y="1040" width="40" height="20" as="geometry"/>
        </mxCell>
        <mxCell id="oT1uAnvIcxXkzFI-VEn5-100" style="edgeStyle=orthogonalEdgeStyle;rounded=0;orthogonalLoop=1;jettySize=auto;html=1;exitX=0.5;exitY=1;exitDx=0;exitDy=0;entryX=0.5;entryY=0;entryDx=0;entryDy=0;" parent="1" source="oT1uAnvIcxXkzFI-VEn5-90" edge="1">
          <mxGeometry relative="1" as="geometry">
            <mxPoint x="540" y="160" as="targetPoint"/>
          </mxGeometry>
        </mxCell>
        <mxCell id="oT1uAnvIcxXkzFI-VEn5-101" style="edgeStyle=orthogonalEdgeStyle;rounded=0;orthogonalLoop=1;jettySize=auto;html=1;exitX=1;exitY=0.5;exitDx=0;exitDy=0;entryX=1;entryY=0.75;entryDx=0;entryDy=0;" parent="1" source="oT1uAnvIcxXkzFI-VEn5-90" target="oT1uAnvIcxXkzFI-VEn5-85" edge="1">
          <mxGeometry relative="1" as="geometry">
            <Array as="points">
              <mxPoint x="690" y="80"/>
              <mxPoint x="690" y="1190"/>
            </Array>
          </mxGeometry>
        </mxCell>
        <mxCell id="oT1uAnvIcxXkzFI-VEn5-90" value="&lt;span style=&quot;text-align: left&quot;&gt;CR is evaluated &lt;br&gt;by CCB Engineer&lt;/span&gt;" style="shape=parallelogram;html=1;strokeWidth=2;perimeter=parallelogramPerimeter;whiteSpace=wrap;rounded=1;arcSize=12;size=0.23;" parent="1" vertex="1">
          <mxGeometry x="460" y="50" width="160" height="60" as="geometry"/>
        </mxCell>
        <mxCell id="oT1uAnvIcxXkzFI-VEn5-98" value="No" style="text;html=1;align=center;verticalAlign=middle;resizable=0;points=[];autosize=1;" parent="1" vertex="1">
          <mxGeometry x="441" y="460" width="30" height="20" as="geometry"/>
        </mxCell>
        <mxCell id="oT1uAnvIcxXkzFI-VEn5-99" value="No" style="text;html=1;align=center;verticalAlign=middle;resizable=0;points=[];autosize=1;" parent="1" vertex="1">
          <mxGeometry x="441" y="670" width="30" height="20" as="geometry"/>
        </mxCell>
        <mxCell id="oT1uAnvIcxXkzFI-VEn5-106" style="edgeStyle=orthogonalEdgeStyle;rounded=0;orthogonalLoop=1;jettySize=auto;html=1;exitX=0.5;exitY=1;exitDx=0;exitDy=0;entryX=0.5;entryY=0;entryDx=0;entryDy=0;entryPerimeter=0;" parent="1" source="oT1uAnvIcxXkzFI-VEn5-103" target="oT1uAnvIcxXkzFI-VEn5-105" edge="1">
          <mxGeometry relative="1" as="geometry"/>
        </mxCell>
        <mxCell id="oT1uAnvIcxXkzFI-VEn5-103" value="&lt;div style=&quot;text-align: left&quot;&gt;Assigned&amp;nbsp;&lt;span&gt;to test team&lt;/span&gt;&lt;/div&gt;&lt;div style=&quot;text-align: left&quot;&gt;&lt;span&gt;&amp;nbsp;member for test.&lt;/span&gt;&lt;span&gt;&amp;nbsp;CR sate is&amp;nbsp;&lt;/span&gt;&lt;/div&gt;&lt;div style=&quot;text-align: left&quot;&gt;&lt;span&gt;updated in RCQ as In-Test&lt;/span&gt;&lt;/div&gt;" style="shape=parallelogram;html=1;strokeWidth=2;perimeter=parallelogramPerimeter;whiteSpace=wrap;rounded=1;arcSize=12;size=0.23;" parent="1" vertex="1">
          <mxGeometry x="410" y="1250" width="260" height="60" as="geometry"/>
        </mxCell>
        <mxCell id="oT1uAnvIcxXkzFI-VEn5-109" style="edgeStyle=orthogonalEdgeStyle;rounded=0;orthogonalLoop=1;jettySize=auto;html=1;exitX=0;exitY=0.5;exitDx=0;exitDy=0;exitPerimeter=0;entryX=0;entryY=0.5;entryDx=0;entryDy=0;" parent="1" source="oT1uAnvIcxXkzFI-VEn5-105" target="oT1uAnvIcxXkzFI-VEn5-85" edge="1">
          <mxGeometry relative="1" as="geometry">
            <Array as="points">
              <mxPoint x="390" y="1400"/>
              <mxPoint x="390" y="1180"/>
            </Array>
          </mxGeometry>
        </mxCell>
        <mxCell id="oT1uAnvIcxXkzFI-VEn5-113" style="edgeStyle=orthogonalEdgeStyle;rounded=0;orthogonalLoop=1;jettySize=auto;html=1;exitX=0.5;exitY=1;exitDx=0;exitDy=0;exitPerimeter=0;" parent="1" source="oT1uAnvIcxXkzFI-VEn5-105" target="oT1uAnvIcxXkzFI-VEn5-112" edge="1">
          <mxGeometry relative="1" as="geometry"/>
        </mxCell>
        <mxCell id="oT1uAnvIcxXkzFI-VEn5-105" value="Is there any Issue?" style="strokeWidth=2;html=1;shape=mxgraph.flowchart.decision;whiteSpace=wrap;" parent="1" vertex="1">
          <mxGeometry x="480" y="1350" width="120" height="100" as="geometry"/>
        </mxCell>
        <mxCell id="oT1uAnvIcxXkzFI-VEn5-110" value="Yes" style="text;html=1;align=center;verticalAlign=middle;resizable=0;points=[];autosize=1;" parent="1" vertex="1">
          <mxGeometry x="410" y="1373" width="40" height="20" as="geometry"/>
        </mxCell>
        <mxCell id="oT1uAnvIcxXkzFI-VEn5-121" style="edgeStyle=orthogonalEdgeStyle;rounded=0;orthogonalLoop=1;jettySize=auto;html=1;exitX=0.5;exitY=1;exitDx=0;exitDy=0;entryX=0.5;entryY=0;entryDx=0;entryDy=0;" parent="1" source="oT1uAnvIcxXkzFI-VEn5-112" target="oT1uAnvIcxXkzFI-VEn5-114" edge="1">
          <mxGeometry relative="1" as="geometry"/>
        </mxCell>
        <mxCell id="oT1uAnvIcxXkzFI-VEn5-112" value="&lt;div style=&quot;text-align: left&quot;&gt;&lt;span&gt;Assign to Dev team&lt;/span&gt;&lt;/div&gt;&lt;div style=&quot;text-align: left&quot;&gt;&lt;span&gt;&amp;nbsp;for code merge/check-in&amp;nbsp;&lt;/span&gt;&lt;/div&gt;" style="shape=parallelogram;html=1;strokeWidth=2;perimeter=parallelogramPerimeter;whiteSpace=wrap;rounded=1;arcSize=12;size=0.23;" parent="1" vertex="1">
          <mxGeometry x="440" y="1480" width="200" height="60" as="geometry"/>
        </mxCell>
        <mxCell id="oT1uAnvIcxXkzFI-VEn5-117" style="edgeStyle=orthogonalEdgeStyle;rounded=0;orthogonalLoop=1;jettySize=auto;html=1;entryX=0;entryY=0.5;entryDx=0;entryDy=0;entryPerimeter=0;" parent="1" source="oT1uAnvIcxXkzFI-VEn5-114" target="oT1uAnvIcxXkzFI-VEn5-116" edge="1">
          <mxGeometry relative="1" as="geometry"/>
        </mxCell>
        <mxCell id="oT1uAnvIcxXkzFI-VEn5-123" style="edgeStyle=orthogonalEdgeStyle;rounded=0;orthogonalLoop=1;jettySize=auto;html=1;exitX=0.5;exitY=1;exitDx=0;exitDy=0;entryX=0.5;entryY=0;entryDx=0;entryDy=0;entryPerimeter=0;" parent="1" source="oT1uAnvIcxXkzFI-VEn5-114" target="oT1uAnvIcxXkzFI-VEn5-122" edge="1">
          <mxGeometry relative="1" as="geometry"/>
        </mxCell>
        <mxCell id="oT1uAnvIcxXkzFI-VEn5-114" value="&lt;div style=&quot;text-align: left&quot;&gt;Code merge/check-in&lt;/div&gt;" style="shape=parallelogram;html=1;strokeWidth=2;perimeter=parallelogramPerimeter;whiteSpace=wrap;rounded=1;arcSize=12;size=0.23;" parent="1" vertex="1">
          <mxGeometry x="440" y="1590" width="200" height="60" as="geometry"/>
        </mxCell>
        <mxCell id="oT1uAnvIcxXkzFI-VEn5-116" value="&lt;span style=&quot;white-space: normal ; text-align: left&quot;&gt;Polarion is updated to &lt;br&gt;mark Code Merge status&lt;/span&gt;" style="shape=mxgraph.flowchart.predefined_process;strokeWidth=2;gradientColor=none;gradientDirection=north;fontStyle=0;html=1;whiteSpace=wrap;" parent="1" vertex="1">
          <mxGeometry x="690" y="1575" width="190" height="90" as="geometry"/>
        </mxCell>
        <mxCell id="oT1uAnvIcxXkzFI-VEn5-118" value="No" style="text;html=1;align=center;verticalAlign=middle;resizable=0;points=[];autosize=1;" parent="1" vertex="1">
          <mxGeometry x="535" y="1460" width="30" height="20" as="geometry"/>
        </mxCell>
        <mxCell id="oT1uAnvIcxXkzFI-VEn5-126" style="edgeStyle=orthogonalEdgeStyle;rounded=0;orthogonalLoop=1;jettySize=auto;html=1;exitX=0.5;exitY=1;exitDx=0;exitDy=0;exitPerimeter=0;entryX=0.5;entryY=0;entryDx=0;entryDy=0;entryPerimeter=0;" parent="1" source="oT1uAnvIcxXkzFI-VEn5-122" target="oT1uAnvIcxXkzFI-VEn5-125" edge="1">
          <mxGeometry relative="1" as="geometry"/>
        </mxCell>
        <mxCell id="oT1uAnvIcxXkzFI-VEn5-122" value="&lt;span style=&quot;text-align: left&quot;&gt;Post merge CR is verified &lt;br&gt;with Lenze build. CR state&lt;br&gt;&amp;nbsp;is updated in RCQ and Polarion&lt;br&gt;&amp;nbsp;is updated with Build number&lt;/span&gt;" style="shape=mxgraph.flowchart.predefined_process;strokeWidth=2;gradientColor=none;gradientDirection=north;fontStyle=0;html=1;whiteSpace=wrap;" parent="1" vertex="1">
          <mxGeometry x="422.5" y="1690" width="235" height="100" as="geometry"/>
        </mxCell>
        <mxCell id="oT1uAnvIcxXkzFI-VEn5-125" value="End" style="strokeWidth=2;html=1;shape=mxgraph.flowchart.start_2;whiteSpace=wrap;" parent="1" vertex="1">
          <mxGeometry x="505" y="1830" width="70" height="70" as="geometry"/>
        </mxCell>
        <mxCell id="oT1uAnvIcxXkzFI-VEn5-127" value="&lt;span style=&quot;text-align: left&quot;&gt;Is OK&amp;nbsp;&lt;/span&gt;implementation?" style="strokeWidth=2;html=1;shape=mxgraph.flowchart.decision;whiteSpace=wrap;" parent="1" vertex="1">
          <mxGeometry x="470" y="160" width="140" height="100" as="geometry"/>
        </mxCell>
      </root>
    </mxGraphModel>
  </diagram>
</mxfile>
